<svg viewBox="0 0 1680 940" xmlns="http://www.w3.org/2000/svg">
  <defs>
    <linearGradient id="iconGradient" x1="0%" y1="0%" x2="100%" y2="100%">
      <stop offset="0%" stop-color="#4839D6"/>
      <stop offset="55%" stop-color="#1F8FCF"/>
      <stop offset="100%" stop-color="#2FE0A6"/>
    </linearGradient>
  </defs>

  <!-- Icon: rounded square with folded top-right corner -->
  <path d="M 375 330
           C 375 300 400 275 430 275
           L 565 275
           L 645 355
           L 645 590
           C 645 620 620 645 590 645
           L 430 645
           C 400 645 375 620 375 590
           Z"
        fill="url(#iconGradient)"/>
  <path d="M 565 275 L 645 355 L 590 355 C 576 355 565 344 565 330 Z"
        fill="#ffffff" fill-opacity="0.25"/>

  <!-- White "1" -->
  <path d="M 505 385
           L 465 425
           L 465 460
           L 495 435
           L 495 545
           L 535 545
           L 535 385
           Z"
        fill="#ffffff"/>

  <!-- Wordmark: One-UI -->
  <g fill="#1A1A1A">
    <!-- O -->
    <path d="M 795 460
             a 90 95 0 1 1 180 0
             a 90 95 0 1 1 -180 0
             Z
             M 833 460
             a 52 57 0 1 0 104 0
             a 52 57 0 1 0 -104 0
             Z"/>
    <!-- n -->
    <path d="M 1005 385 L 1043 385 L 1043 405
             C 1055 390 1073 380 1095 380
             C 1130 380 1152 403 1152 440
             L 1152 535 L 1114 535 L 1114 448
             C 1114 425 1101 412 1080 412
             C 1058 412 1043 427 1043 452 L 1043 535 L 1005 535 Z"/>
    <!-- e -->
    <path d="M 1185 460
             C 1185 415 1218 380 1263 380
             C 1306 380 1338 412 1338 458
             L 1338 470 L 1222 470
             C 1226 493 1243 507 1266 507
             C 1283 507 1296 500 1304 488
             L 1332 505
             C 1318 526 1294 540 1265 540
             C 1219 540 1185 507 1185 460 Z
             M 1222 445 L 1300 445
             C 1296 425 1281 412 1262 412
             C 1243 412 1227 424 1222 445 Z"/>
    <!-- hyphen -->
    <rect x="1362" y="443" width="60" height="24"/>
    <!-- U -->
    <path d="M 1450 385 L 1490 385 L 1490 480
             C 1490 505 1505 520 1528 520
             C 1551 520 1566 505 1566 480
             L 1566 385 L 1606 385 L 1606 482
             C 1606 528 1573 555 1528 555
             C 1483 555 1450 528 1450 482 Z"/>
    <!-- I -->
    <rect x="1635" y="385" width="38" height="150"/>
  </g>
</svg>
